<svg width="53" height="49" viewBox="0 0 53 49" fill="none" xmlns="http://www.w3.org/2000/svg">
<g filter="url(#filter0_i_1161_3)">
<rect width="53" height="49" rx="15" fill="#5CCD6A"/>
</g>
<g clip-path="url(#clip0_1161_3)">
<path d="M28.7904 24.5204L38.5249 14.7856C39.1584 14.1524 39.1584 13.1286 38.5249 12.4954C37.8917 11.8622 36.8679 11.8622 36.2347 12.4954L26.4999 22.2302L16.7654 12.4954C16.1319 11.8622 15.1083 11.8622 14.4751 12.4954C13.8416 13.1286 13.8416 14.1524 14.4751 14.7856L24.2096 24.5204L14.4751 34.2552C13.8416 34.8884 13.8416 35.9123 14.4751 36.5455C14.7907 36.8613 15.2056 37.02 15.6202 37.02C16.0349 37.02 16.4495 36.8613 16.7654 36.5455L26.4999 26.8107L36.2347 36.5455C36.5505 36.8613 36.9651 37.02 37.3798 37.02C37.7944 37.02 38.209 36.8613 38.5249 36.5455C39.1584 35.9123 39.1584 34.8884 38.5249 34.2552L28.7904 24.5204Z" fill="white"/>
</g>
<defs>
<filter id="filter0_i_1161_3" x="0" y="-2" width="55" height="51" filterUnits="userSpaceOnUse" color-interpolation-filters="sRGB">
<feFlood flood-opacity="0" result="BackgroundImageFix"/>
<feBlend mode="normal" in="SourceGraphic" in2="BackgroundImageFix" result="shape"/>
<feColorMatrix in="SourceAlpha" type="matrix" values="0 0 0 0 0 0 0 0 0 0 0 0 0 0 0 0 0 0 127 0" result="hardAlpha"/>
<feOffset dx="2" dy="-2"/>
<feGaussianBlur stdDeviation="6"/>
<feComposite in2="hardAlpha" operator="arithmetic" k2="-1" k3="1"/>
<feColorMatrix type="matrix" values="0 0 0 0 0.135005 0 0 0 0 0.433333 0 0 0 0 0.128917 0 0 0 0.36 0"/>
<feBlend mode="normal" in2="shape" result="effect1_innerShadow_1161_3"/>
</filter>
<clipPath id="clip0_1161_3">
<rect width="25" height="25" fill="white" transform="translate(14 12)"/>
</clipPath>
</defs>
</svg>
