<svg width="34" height="34" viewBox="0 0 34 34" fill="none" xmlns="http://www.w3.org/2000/svg">
<rect width="34" height="34" rx="10" fill="white"/>
<g clip-path="url(#clip0_86_1802)">
<path d="M27.13 21.855L25.08 20.83L23.7753 17.4362C23.7599 17.3961 23.7365 17.3596 23.7064 17.3289C23.6762 17.2983 23.6401 17.2742 23.6003 17.2581L15.505 14.0222C15.4484 13.9996 15.3864 13.9941 15.3267 14.0063C15.2671 14.0186 15.2122 14.048 15.169 14.0909L14.0894 15.1706C14.047 15.2138 14.0181 15.2685 14.0061 15.3278C13.9942 15.3872 13.9998 15.4487 14.0222 15.505L17.2581 23.6003C17.2742 23.6401 17.2983 23.6762 17.3289 23.7064C17.3596 23.7365 17.3961 23.7599 17.4362 23.7753L20.83 25.08L21.855 27.13C21.8766 27.1752 21.9087 27.2145 21.9487 27.2447C21.9886 27.2749 22.0353 27.295 22.0847 27.3034C22.1013 27.305 22.118 27.305 22.1347 27.3034C22.2174 27.3031 22.2966 27.2699 22.355 27.2112L27.2112 22.355C27.247 22.3205 27.274 22.278 27.29 22.231C27.306 22.184 27.3106 22.1338 27.3034 22.0847C27.295 22.0353 27.2749 21.9886 27.2447 21.9487C27.2145 21.9087 27.1752 21.8766 27.13 21.855ZM14.6769 15.4643L14.8503 15.2925L18.88 19.3222C18.6144 19.6985 18.4997 20.1607 18.5586 20.6176C18.6174 21.0744 18.8456 21.4925 19.1978 21.7892C19.5501 22.0859 20.0009 22.2396 20.4611 22.2199C20.9212 22.2003 21.3573 22.0086 21.683 21.683C22.0087 21.3573 22.2003 20.9212 22.2199 20.4611C22.2396 20.0009 22.0859 19.5501 21.7892 19.1978C21.4925 18.8455 21.0744 18.6174 20.6176 18.5586C20.1607 18.4997 19.6985 18.6144 19.3222 18.88L15.2925 14.8503L15.4644 14.6768L23.2409 17.7878L24.4675 20.9784L20.9784 24.4675L17.7878 23.2409L14.6769 15.4643ZM20.3815 19.1675C20.6624 19.1679 20.9344 19.2657 21.1513 19.4442C21.3681 19.6226 21.5164 19.8708 21.5708 20.1463C21.6252 20.4219 21.5824 20.7077 21.4497 20.9553C21.317 21.2028 21.1025 21.3966 20.8429 21.5038C20.5833 21.6109 20.2946 21.6247 20.0259 21.5429C19.7572 21.461 19.5253 21.2886 19.3695 21.0549C19.2137 20.8212 19.1438 20.5407 19.1717 20.2612C19.1995 19.9817 19.3234 19.7205 19.5222 19.5222C19.7503 19.2947 20.0594 19.1672 20.3815 19.1675ZM22.2206 26.4628L21.4394 24.9003L24.8972 21.4425L26.4597 22.2237L22.2206 26.4628Z" fill="#78C081"/>
<path d="M12.9765 23.7187C12.9168 23.6622 12.8377 23.6308 12.7555 23.6308C12.6732 23.6308 12.5941 23.6622 12.5344 23.7187L12.1375 24.1156C11.0784 22.6782 10.4941 20.9461 10.4661 19.1609C10.4381 17.3757 10.9678 15.6262 11.9812 14.1562C12.2849 14.3233 12.6345 14.3875 12.9777 14.3391C13.3209 14.2908 13.6391 14.1326 13.8848 13.8881C14.1305 13.6437 14.2903 13.3262 14.3404 12.9832C14.3905 12.6403 14.328 12.2904 14.1625 11.9859C15.6324 10.9724 17.3819 10.4428 19.1672 10.4708C20.9524 10.4988 22.6844 11.0831 24.1219 12.1422L23.7187 12.5343C23.6606 12.5929 23.628 12.6721 23.6281 12.7547C23.6279 12.7958 23.6358 12.8366 23.6513 12.8746C23.6669 12.9127 23.6898 12.9473 23.7187 12.9765L25.0969 14.3437C25.1554 14.4019 25.2346 14.4346 25.3172 14.4346C25.3997 14.4346 25.4789 14.4019 25.5375 14.3437L26.9078 12.9734C26.9369 12.9444 26.9599 12.9099 26.9756 12.872C26.9914 12.834 26.9995 12.7934 26.9995 12.7523C26.9995 12.7112 26.9914 12.6706 26.9756 12.6326C26.9599 12.5947 26.9369 12.5602 26.9078 12.5312L25.5375 11.1609C25.4789 11.1027 25.3997 11.07 25.3172 11.07C25.2346 11.07 25.1554 11.1027 25.0969 11.1609L24.5672 11.6875C23.2617 10.7051 21.7183 10.0879 20.0955 9.89928C18.4726 9.71064 16.8288 9.95733 15.3328 10.614L17.1344 8.81715C17.3386 8.91476 17.5709 8.93685 17.7899 8.87952C18.0089 8.82218 18.2005 8.68912 18.3308 8.50393C18.461 8.31875 18.5214 8.09343 18.5013 7.86793C18.4812 7.64243 18.3819 7.43133 18.221 7.27209C18.0601 7.11286 17.8479 7.01577 17.6222 6.99805C17.3965 6.98034 17.1719 7.04315 16.9881 7.17533C16.8043 7.30751 16.6732 7.50053 16.6182 7.72013C16.5632 7.93974 16.5877 8.17173 16.6875 8.37497L13.6469 11.4203C13.3381 11.2132 12.9671 11.1197 12.5971 11.1558C12.2271 11.1919 11.8811 11.3554 11.6182 11.6182C11.3554 11.8811 11.1919 12.2271 11.1558 12.5971C11.1197 12.9671 11.2132 13.3381 11.4203 13.6468L8.37498 16.6875C8.17096 16.588 7.93829 16.5642 7.71833 16.6201C7.49837 16.676 7.30536 16.8081 7.17359 16.9929C7.04183 17.1777 6.97985 17.4033 6.99866 17.6294C7.01748 17.8556 7.11587 18.0678 7.27636 18.2283C7.43684 18.3888 7.64903 18.4872 7.87521 18.506C8.10139 18.5248 8.32691 18.4628 8.51171 18.331C8.6965 18.1993 8.8286 18.0063 8.88453 17.7863C8.94046 17.5663 8.91659 17.3337 8.81717 17.1297L10.6187 15.3328C9.96138 16.8284 9.71391 18.472 9.90173 20.0948C10.0896 21.7176 10.7059 23.2613 11.6875 24.5672L11.1594 25.0968C11.1012 25.1554 11.0685 25.2346 11.0685 25.3172C11.0685 25.3997 11.1012 25.4789 11.1594 25.5375L12.5297 26.9078C12.588 26.9665 12.6672 26.9996 12.75 27C12.7912 27 12.8321 26.9919 12.8701 26.976C12.9082 26.9602 12.9428 26.937 12.9719 26.9078L14.3437 25.5375C14.4019 25.4789 14.4346 25.3997 14.4346 25.3172C14.4346 25.2346 14.4019 25.1554 14.3437 25.0968L12.9765 23.7187ZM25.3203 11.8203L26.2484 12.7484L25.3203 13.6765L24.3922 12.7484L25.3203 11.8203ZM17.3125 7.7234C17.3589 7.67659 17.4182 7.64462 17.4829 7.63156C17.5475 7.6185 17.6145 7.62493 17.6755 7.65004C17.7365 7.67515 17.7886 7.71781 17.8253 7.7726C17.862 7.82739 17.8816 7.89184 17.8816 7.95778C17.8816 8.02372 17.862 8.08817 17.8253 8.14296C17.7886 8.19775 17.7365 8.24041 17.6755 8.26552C17.6145 8.29063 17.5475 8.29706 17.4829 8.284C17.4182 8.27094 17.3589 8.23897 17.3125 8.19215C17.2817 8.16139 17.2572 8.12485 17.2406 8.08464C17.2239 8.04442 17.2153 8.00131 17.2153 7.95778C17.2153 7.91424 17.2239 7.87114 17.2406 7.83092C17.2572 7.7907 17.2817 7.75417 17.3125 7.7234ZM12.0625 12.0625C12.1532 11.9713 12.2611 11.8989 12.3799 11.8496C12.4987 11.8002 12.626 11.7748 12.7547 11.7748C12.8833 11.7748 13.0107 11.8002 13.1295 11.8496C13.2483 11.8989 13.3561 11.9713 13.4469 12.0625C13.584 12.1994 13.6775 12.374 13.7154 12.5641C13.7533 12.7541 13.734 12.9512 13.6599 13.1303C13.5858 13.3094 13.4603 13.4625 13.2991 13.5702C13.138 13.678 12.9485 13.7355 12.7547 13.7355C12.5608 13.7355 12.3714 13.678 12.2102 13.5702C12.0491 13.4625 11.9235 13.3094 11.8494 13.1303C11.7753 12.9512 11.756 12.7541 11.7939 12.5641C11.8319 12.374 11.9253 12.1994 12.0625 12.0625ZM8.19373 17.7812C8.12994 17.8344 8.04855 17.8618 7.96556 17.8581C7.88257 17.8543 7.80399 17.8197 7.74525 17.761C7.68651 17.7022 7.65186 17.6236 7.64811 17.5406C7.64436 17.4577 7.67178 17.3763 7.72498 17.3125C7.78752 17.251 7.87168 17.2166 7.95936 17.2166C8.04703 17.2166 8.1312 17.251 8.19373 17.3125C8.22454 17.3432 8.24897 17.3798 8.26565 17.42C8.28232 17.4602 8.2909 17.5033 8.2909 17.5468C8.2909 17.5904 8.28232 17.6335 8.26565 17.6737C8.24897 17.7139 8.22454 17.7505 8.19373 17.7812ZM12.7547 26.239L11.8265 25.3109L12.7547 24.3828L13.6828 25.3109L12.7547 26.239Z" fill="#78C081"/>
</g>
<defs>
<clipPath id="clip0_86_1802">
<rect width="20" height="20" fill="white" transform="translate(7 7)"/>
</clipPath>
</defs>
</svg>
