<svg width="17" height="17" viewBox="0 0 17 17" fill="none" xmlns="http://www.w3.org/2000/svg">
<path d="M7.67428 9.12256C5.3065 11.3117 2.05425 10.9146 0.708136 8.8142C-1.02694 6.10684 1.82341 2.32591 4.36874 5.18985C5.10959 6.02125 6.09092 7.93919 7.6775 7.72929L7.67428 9.12256Z" fill="#D7FFDB"/>
<path d="M9.12437 9.32793C11.3114 11.6963 10.9143 14.9509 8.81608 16.2973C6.10936 18.0328 2.32933 15.1801 5.19099 12.6342C6.02383 11.8948 7.93968 10.9133 7.73147 9.32629L9.12437 9.32793Z" fill="#9DFF94"/>
<path d="M12.6343 11.8108C11.8951 10.9778 10.9137 9.0615 9.32715 9.2714L9.33037 7.87817C11.6981 5.68902 14.9504 6.08616 16.2965 8.18653C18.0316 10.8923 15.1796 14.6748 12.6343 11.8108Z" fill="#D7FFDB"/>
<path d="M7.87885 7.67307C5.69022 5.30473 6.0889 2.05007 8.18713 0.703676C10.8939 -1.03181 14.6739 1.82085 11.8106 4.36679C10.9794 5.10618 9.06357 6.08774 9.27179 7.6747L7.87885 7.67307Z" fill="#9DFF94"/>
<path d="M8.47442 10.3198C9.43705 10.3198 10.2174 9.53925 10.2174 8.5764C10.2174 7.61355 9.43705 6.83301 8.47442 6.83301C7.5118 6.83301 6.73145 7.61355 6.73145 8.5764C6.73145 9.53925 7.5118 10.3198 8.47442 10.3198Z" fill="white"/>
<path d="M0.171145 7.03838C0.269228 7.04211 0.351785 6.96708 0.356109 6.86922C0.406126 5.74577 1.04418 4.74691 1.90767 4.44036C2.67153 4.16927 3.49851 4.47749 4.23674 5.30814C4.74119 5.87465 5.35755 6.95237 6.23604 7.53366C6.31764 7.58759 6.4276 7.56529 6.48155 7.48364C6.53553 7.40205 6.5132 7.29207 6.43153 7.23807C5.61734 6.69921 5.01693 5.65174 4.50142 5.0725C3.36754 3.79684 2.31596 3.91938 1.78914 4.10637C0.793281 4.46001 0.058352 5.58959 0.0021326 6.85348C-0.00222742 6.95123 0.0733817 7.03406 0.171145 7.03838Z" fill="#78C081"/>
<path d="M6.38489 9.82747C4.77675 10.6865 2.91328 10.5886 1.63715 9.57902C1.56033 9.51803 1.44892 9.53161 1.38834 9.6081C1.32762 9.68488 1.34059 9.79634 1.41741 9.85701C2.17814 10.459 3.12831 10.7641 4.11704 10.7641C4.93034 10.7641 5.7698 10.5576 6.55163 10.1402C6.63795 10.0941 6.67066 9.9868 6.62447 9.90045C6.57846 9.81407 6.4707 9.78127 6.38489 9.82747Z" fill="#78C081"/>
<path d="M0.411867 8.25118C0.323107 8.2926 0.284894 8.398 0.326226 8.48662C0.429165 8.70685 0.557378 8.92255 0.696969 9.11044C0.755138 9.18871 0.866018 9.2055 0.944888 9.14701C1.02344 9.08872 1.03971 8.97779 0.981399 8.89928C0.855809 8.73024 0.740215 8.53569 0.647308 8.33664C0.606012 8.24824 0.500449 8.21001 0.411867 8.25118Z" fill="#78C081"/>
<path d="M8.9126 16.4467C10.7993 15.2348 11.3233 12.6488 10.1316 10.4315C10.0853 10.3452 9.97765 10.313 9.89165 10.3593C9.80548 10.4057 9.77315 10.5132 9.81952 10.5994C10.9228 12.652 10.4507 15.0376 8.72143 16.1484C7.27628 17.0744 5.48562 16.6143 4.72024 15.6033C4.06507 14.738 4.28548 13.6778 5.31002 12.7672C5.8631 12.2745 6.88565 11.6862 7.47851 10.85C7.53508 10.7702 7.5164 10.6596 7.43647 10.6029C7.35689 10.5463 7.24597 10.5652 7.18958 10.645C6.63777 11.4232 5.6333 12.0046 5.07454 12.5023C3.6877 13.7349 3.8363 15.0229 4.43769 15.8173C5.34011 17.009 7.35706 17.4437 8.9126 16.4467Z" fill="#78C081"/>
<path d="M15.6037 12.282C14.7378 12.9382 13.6772 12.7177 12.766 11.6929C12.2659 11.1287 11.6552 10.0648 10.7892 9.48046C10.7077 9.42579 10.598 9.44706 10.5432 9.52833C10.4885 9.60949 10.51 9.71965 10.5909 9.77432C11.3936 10.3158 11.994 11.3563 12.5011 11.9283C13.6491 13.2196 14.9282 13.2386 15.8177 12.5645C16.9539 11.7032 17.4777 9.70018 16.4462 8.09113C15.2262 6.18808 12.5406 5.67645 10.3317 6.92676C10.2464 6.97495 10.2165 7.08302 10.2648 7.16825C10.3129 7.25338 10.4212 7.28359 10.5061 7.23512C12.5511 6.07802 15.0293 6.53757 16.148 8.28234C17.0736 9.72642 16.6139 11.5163 15.6037 12.282Z" fill="#78C081"/>
<path d="M8.09147 0.554373C6.19805 1.76994 5.68264 4.4499 6.9183 6.6556C6.96594 6.74101 7.07384 6.77129 7.15949 6.7236C7.24477 6.67574 7.27522 6.56777 7.2273 6.48236C6.08316 4.43997 6.54685 1.96714 8.28263 0.852698C9.72778 -0.0731935 11.5184 0.386313 12.2836 1.39694C12.939 2.2621 12.7186 3.32265 11.694 4.23393C11.1275 4.73847 9.99594 5.3871 9.42932 6.29437C9.37742 6.37734 9.40266 6.48672 9.48554 6.53856C9.56859 6.59057 9.67777 6.56522 9.72966 6.48215C10.256 5.63954 11.3402 5.02357 11.9295 4.49872C13.3163 3.26528 13.1677 1.97711 12.5662 1.1829C11.7051 0.046186 9.70148 -0.477637 8.09147 0.554373Z" fill="#78C081"/>
<path d="M8.47378 10.497C9.5326 10.497 10.394 9.63534 10.394 8.57635C10.394 7.51729 9.53263 6.65564 8.47378 6.65564C7.41515 6.65564 6.55371 7.51725 6.55371 8.57635C6.55375 9.63534 7.41515 10.497 8.47378 10.497ZM8.47378 7.01009C9.33728 7.01009 10.0397 7.71275 10.0397 8.57638C10.0397 9.44002 9.33728 10.1426 8.47378 10.1426C7.61047 10.1426 6.90804 9.43998 6.90804 8.57638C6.90804 7.71279 7.61047 7.01009 8.47378 7.01009Z" fill="#78C081"/>
</svg>
